<mxfile host="www.draw.io" modified="2020-02-24T08:04:46.430Z" agent="Mozilla/5.0 (Windows NT 10.0; Win64; x64) AppleWebKit/537.36 (KHTML, like Gecko) Chrome/78.0.3904.108 Safari/537.36" etag="I9UbSsM4LEc52MrDIkOc" version="12.7.4" type="github">
  <diagram id="GYig4gQRv9blmUTTjOJp" name="Page-1">
    <mxGraphModel dx="2468" dy="696" grid="1" gridSize="10" guides="1" tooltips="1" connect="1" arrows="1" fold="1" page="1" pageScale="1" pageWidth="827" pageHeight="1169" math="0" shadow="0">
      <root>
        <mxCell id="0" />
        <mxCell id="1" parent="0" />
        <mxCell id="cRylLDb_RZIH1TP81bXJ-1" style="edgeStyle=orthogonalEdgeStyle;rounded=0;orthogonalLoop=1;jettySize=auto;html=1;exitX=1;exitY=0.5;exitDx=0;exitDy=0;" edge="1" parent="1" source="cRylLDb_RZIH1TP81bXJ-2" target="cRylLDb_RZIH1TP81bXJ-33">
          <mxGeometry relative="1" as="geometry" />
        </mxCell>
        <mxCell id="cRylLDb_RZIH1TP81bXJ-2" value="微信退款接口" style="rounded=0;whiteSpace=wrap;html=1;" vertex="1" parent="1">
          <mxGeometry x="370" y="95" width="120" height="60" as="geometry" />
        </mxCell>
        <mxCell id="cRylLDb_RZIH1TP81bXJ-3" style="edgeStyle=orthogonalEdgeStyle;rounded=0;orthogonalLoop=1;jettySize=auto;html=1;exitX=0;exitY=0;exitDx=100;exitDy=55;exitPerimeter=0;" edge="1" parent="1" source="cRylLDb_RZIH1TP81bXJ-9" target="cRylLDb_RZIH1TP81bXJ-2">
          <mxGeometry relative="1" as="geometry" />
        </mxCell>
        <mxCell id="cRylLDb_RZIH1TP81bXJ-4" value="实际退款成功回调通知" style="text;html=1;align=center;verticalAlign=middle;resizable=0;points=[];labelBackgroundColor=#ffffff;" vertex="1" connectable="0" parent="cRylLDb_RZIH1TP81bXJ-3">
          <mxGeometry x="-0.1412" y="2" relative="1" as="geometry">
            <mxPoint as="offset" />
          </mxGeometry>
        </mxCell>
        <mxCell id="cRylLDb_RZIH1TP81bXJ-5" style="edgeStyle=orthogonalEdgeStyle;rounded=0;orthogonalLoop=1;jettySize=auto;html=1;exitX=0;exitY=0;exitDx=55;exitDy=100;exitPerimeter=0;entryX=0;entryY=0.5;entryDx=0;entryDy=0;" edge="1" parent="1" source="cRylLDb_RZIH1TP81bXJ-9" target="cRylLDb_RZIH1TP81bXJ-20">
          <mxGeometry relative="1" as="geometry" />
        </mxCell>
        <mxCell id="cRylLDb_RZIH1TP81bXJ-6" value="支付成功回调通知" style="text;html=1;align=center;verticalAlign=middle;resizable=0;points=[];labelBackgroundColor=#ffffff;" vertex="1" connectable="0" parent="cRylLDb_RZIH1TP81bXJ-5">
          <mxGeometry x="-0.1" relative="1" as="geometry">
            <mxPoint x="24" as="offset" />
          </mxGeometry>
        </mxCell>
        <mxCell id="cRylLDb_RZIH1TP81bXJ-7" style="edgeStyle=orthogonalEdgeStyle;rounded=0;orthogonalLoop=1;jettySize=auto;html=1;exitX=0;exitY=0;exitDx=0;exitDy=45;exitPerimeter=0;entryX=0.073;entryY=0.04;entryDx=0;entryDy=0;entryPerimeter=0;" edge="1" parent="1" source="cRylLDb_RZIH1TP81bXJ-9" target="cRylLDb_RZIH1TP81bXJ-23">
          <mxGeometry relative="1" as="geometry" />
        </mxCell>
        <mxCell id="cRylLDb_RZIH1TP81bXJ-8" value="下载数据内容" style="text;html=1;align=center;verticalAlign=middle;resizable=0;points=[];labelBackgroundColor=#ffffff;" vertex="1" connectable="0" parent="cRylLDb_RZIH1TP81bXJ-7">
          <mxGeometry x="0.6257" y="4" relative="1" as="geometry">
            <mxPoint x="1.93" y="-181.1" as="offset" />
          </mxGeometry>
        </mxCell>
        <mxCell id="cRylLDb_RZIH1TP81bXJ-9" value="微信服务器" style="html=1;dashed=0;whitespace=wrap;shape=mxgraph.dfd.externalEntity" vertex="1" parent="1">
          <mxGeometry x="100" y="70" width="100" height="100" as="geometry" />
        </mxCell>
        <mxCell id="cRylLDb_RZIH1TP81bXJ-10" value="Id" style="autosize=1;part=1;resizable=0;strokeColor=inherit;fillColor=inherit;gradientColor=inherit;" vertex="1" parent="cRylLDb_RZIH1TP81bXJ-9">
          <mxGeometry width="20" height="20" relative="1" as="geometry">
            <mxPoint x="15" y="15" as="offset" />
          </mxGeometry>
        </mxCell>
        <mxCell id="cRylLDb_RZIH1TP81bXJ-11" style="edgeStyle=orthogonalEdgeStyle;rounded=0;orthogonalLoop=1;jettySize=auto;html=1;exitX=0;exitY=0;exitDx=100;exitDy=55;exitPerimeter=0;entryX=0.5;entryY=1;entryDx=0;entryDy=0;" edge="1" parent="1" source="cRylLDb_RZIH1TP81bXJ-17" target="cRylLDb_RZIH1TP81bXJ-20">
          <mxGeometry relative="1" as="geometry" />
        </mxCell>
        <mxCell id="cRylLDb_RZIH1TP81bXJ-12" value="支付成功回调通知" style="text;html=1;align=center;verticalAlign=middle;resizable=0;points=[];labelBackgroundColor=#ffffff;" vertex="1" connectable="0" parent="cRylLDb_RZIH1TP81bXJ-11">
          <mxGeometry x="-0.4095" y="1" relative="1" as="geometry">
            <mxPoint as="offset" />
          </mxGeometry>
        </mxCell>
        <mxCell id="cRylLDb_RZIH1TP81bXJ-13" style="edgeStyle=orthogonalEdgeStyle;rounded=0;orthogonalLoop=1;jettySize=auto;html=1;exitX=0;exitY=0;exitDx=55;exitDy=100;exitPerimeter=0;" edge="1" parent="1" source="cRylLDb_RZIH1TP81bXJ-17" target="cRylLDb_RZIH1TP81bXJ-23">
          <mxGeometry relative="1" as="geometry" />
        </mxCell>
        <mxCell id="cRylLDb_RZIH1TP81bXJ-14" value="获取下载地址" style="text;html=1;align=center;verticalAlign=middle;resizable=0;points=[];labelBackgroundColor=#ffffff;" vertex="1" connectable="0" parent="cRylLDb_RZIH1TP81bXJ-13">
          <mxGeometry x="0.3217" y="1" relative="1" as="geometry">
            <mxPoint x="-1" y="-41" as="offset" />
          </mxGeometry>
        </mxCell>
        <mxCell id="cRylLDb_RZIH1TP81bXJ-15" style="edgeStyle=orthogonalEdgeStyle;rounded=0;orthogonalLoop=1;jettySize=auto;html=1;exitX=0;exitY=0;exitDx=115;exitDy=100;exitPerimeter=0;entryX=0.75;entryY=0;entryDx=0;entryDy=0;" edge="1" parent="1" source="cRylLDb_RZIH1TP81bXJ-17" target="cRylLDb_RZIH1TP81bXJ-23">
          <mxGeometry relative="1" as="geometry">
            <mxPoint x="210" y="510" as="targetPoint" />
          </mxGeometry>
        </mxCell>
        <mxCell id="cRylLDb_RZIH1TP81bXJ-16" value="下载zip" style="text;html=1;align=center;verticalAlign=middle;resizable=0;points=[];labelBackgroundColor=#ffffff;" vertex="1" connectable="0" parent="cRylLDb_RZIH1TP81bXJ-15">
          <mxGeometry x="0.1818" y="2" relative="1" as="geometry">
            <mxPoint as="offset" />
          </mxGeometry>
        </mxCell>
        <mxCell id="cRylLDb_RZIH1TP81bXJ-17" value="支付宝服务器" style="html=1;dashed=0;whitespace=wrap;shape=mxgraph.dfd.externalEntity" vertex="1" parent="1">
          <mxGeometry x="28" y="310" width="170" height="100" as="geometry" />
        </mxCell>
        <mxCell id="cRylLDb_RZIH1TP81bXJ-18" value="Id" style="autosize=1;part=1;resizable=0;strokeColor=inherit;fillColor=inherit;gradientColor=inherit;" vertex="1" parent="cRylLDb_RZIH1TP81bXJ-17">
          <mxGeometry width="20" height="20" relative="1" as="geometry">
            <mxPoint x="15" y="15" as="offset" />
          </mxGeometry>
        </mxCell>
        <mxCell id="cRylLDb_RZIH1TP81bXJ-19" style="edgeStyle=orthogonalEdgeStyle;rounded=0;orthogonalLoop=1;jettySize=auto;html=1;exitX=1;exitY=0.5;exitDx=0;exitDy=0;entryX=0;entryY=0.5;entryDx=0;entryDy=0;" edge="1" parent="1" source="cRylLDb_RZIH1TP81bXJ-20" target="cRylLDb_RZIH1TP81bXJ-35">
          <mxGeometry relative="1" as="geometry" />
        </mxCell>
        <mxCell id="cRylLDb_RZIH1TP81bXJ-20" value="支付成功接口" style="html=1;dashed=0;whitespace=wrap;" vertex="1" parent="1">
          <mxGeometry x="370" y="220" width="120" height="50" as="geometry" />
        </mxCell>
        <mxCell id="cRylLDb_RZIH1TP81bXJ-21" style="edgeStyle=orthogonalEdgeStyle;rounded=0;orthogonalLoop=1;jettySize=auto;html=1;exitX=1;exitY=0.5;exitDx=0;exitDy=0;entryX=0;entryY=0.5;entryDx=0;entryDy=0;" edge="1" parent="1" source="cRylLDb_RZIH1TP81bXJ-23" target="cRylLDb_RZIH1TP81bXJ-28">
          <mxGeometry relative="1" as="geometry" />
        </mxCell>
        <mxCell id="cRylLDb_RZIH1TP81bXJ-22" value="csv数据" style="text;html=1;align=center;verticalAlign=middle;resizable=0;points=[];labelBackgroundColor=#ffffff;" vertex="1" connectable="0" parent="cRylLDb_RZIH1TP81bXJ-21">
          <mxGeometry x="-0.2157" relative="1" as="geometry">
            <mxPoint as="offset" />
          </mxGeometry>
        </mxCell>
        <mxCell id="cRylLDb_RZIH1TP81bXJ-23" value="下载对账单" style="html=1;dashed=0;whitespace=wrap;" vertex="1" parent="1">
          <mxGeometry x="-22" y="520" width="220" height="50" as="geometry" />
        </mxCell>
        <mxCell id="cRylLDb_RZIH1TP81bXJ-24" style="edgeStyle=orthogonalEdgeStyle;rounded=0;orthogonalLoop=1;jettySize=auto;html=1;entryX=0;entryY=0.5;entryDx=0;entryDy=0;" edge="1" parent="1" source="cRylLDb_RZIH1TP81bXJ-25" target="cRylLDb_RZIH1TP81bXJ-23">
          <mxGeometry relative="1" as="geometry" />
        </mxCell>
        <mxCell id="cRylLDb_RZIH1TP81bXJ-25" value="开始日对账" style="html=1;dashed=0;whitespace=wrap;shape=mxgraph.dfd.start" vertex="1" parent="1">
          <mxGeometry x="-180" y="530" width="80" height="30" as="geometry" />
        </mxCell>
        <mxCell id="cRylLDb_RZIH1TP81bXJ-26" style="edgeStyle=orthogonalEdgeStyle;rounded=0;orthogonalLoop=1;jettySize=auto;html=1;exitX=1;exitY=0.5;exitDx=0;exitDy=0;entryX=0;entryY=0.5;entryDx=0;entryDy=0;" edge="1" parent="1" source="cRylLDb_RZIH1TP81bXJ-28">
          <mxGeometry relative="1" as="geometry">
            <mxPoint x="680" y="545" as="targetPoint" />
          </mxGeometry>
        </mxCell>
        <mxCell id="cRylLDb_RZIH1TP81bXJ-27" value="渠道订单列表" style="text;html=1;align=center;verticalAlign=middle;resizable=0;points=[];labelBackgroundColor=#ffffff;" vertex="1" connectable="0" parent="cRylLDb_RZIH1TP81bXJ-26">
          <mxGeometry x="-0.5083" y="27" relative="1" as="geometry">
            <mxPoint x="51" y="12" as="offset" />
          </mxGeometry>
        </mxCell>
        <mxCell id="cRylLDb_RZIH1TP81bXJ-28" value="分析CSV格式文件" style="html=1;dashed=0;whitespace=wrap;" vertex="1" parent="1">
          <mxGeometry x="340" y="520" width="100" height="50" as="geometry" />
        </mxCell>
        <mxCell id="cRylLDb_RZIH1TP81bXJ-29" style="edgeStyle=orthogonalEdgeStyle;rounded=0;orthogonalLoop=1;jettySize=auto;html=1;exitX=1;exitY=0.5;exitDx=0;exitDy=0;" edge="1" parent="1" source="cRylLDb_RZIH1TP81bXJ-30" target="cRylLDb_RZIH1TP81bXJ-31">
          <mxGeometry relative="1" as="geometry" />
        </mxCell>
        <mxCell id="cRylLDb_RZIH1TP81bXJ-30" value="通知上游业务端" style="html=1;dashed=0;whitespace=wrap;" vertex="1" parent="1">
          <mxGeometry x="740" y="100" width="100" height="50" as="geometry" />
        </mxCell>
        <mxCell id="cRylLDb_RZIH1TP81bXJ-31" value="" style="shape=ellipse;html=1;dashed=0;whitespace=wrap;aspect=fixed;strokeWidth=5;perimeter=ellipsePerimeter;" vertex="1" parent="1">
          <mxGeometry x="1080" y="160" width="60" height="60" as="geometry" />
        </mxCell>
        <mxCell id="cRylLDb_RZIH1TP81bXJ-32" style="edgeStyle=orthogonalEdgeStyle;rounded=0;orthogonalLoop=1;jettySize=auto;html=1;exitX=1;exitY=0.5;exitDx=0;exitDy=0;" edge="1" parent="1" source="cRylLDb_RZIH1TP81bXJ-33" target="cRylLDb_RZIH1TP81bXJ-30">
          <mxGeometry relative="1" as="geometry" />
        </mxCell>
        <mxCell id="cRylLDb_RZIH1TP81bXJ-33" value="仅仅刷新退款&lt;br&gt;订单状态" style="html=1;dashed=0;whitespace=wrap;" vertex="1" parent="1">
          <mxGeometry x="560" y="100" width="100" height="50" as="geometry" />
        </mxCell>
        <mxCell id="cRylLDb_RZIH1TP81bXJ-34" style="edgeStyle=orthogonalEdgeStyle;rounded=0;orthogonalLoop=1;jettySize=auto;html=1;exitX=1;exitY=0.5;exitDx=0;exitDy=0;" edge="1" parent="1" source="cRylLDb_RZIH1TP81bXJ-35" target="cRylLDb_RZIH1TP81bXJ-37">
          <mxGeometry relative="1" as="geometry" />
        </mxCell>
        <mxCell id="cRylLDb_RZIH1TP81bXJ-35" value="更新支付订单状态" style="html=1;dashed=0;whitespace=wrap;" vertex="1" parent="1">
          <mxGeometry x="560" y="220" width="100" height="50" as="geometry" />
        </mxCell>
        <mxCell id="cRylLDb_RZIH1TP81bXJ-36" style="edgeStyle=orthogonalEdgeStyle;rounded=0;orthogonalLoop=1;jettySize=auto;html=1;exitX=1;exitY=0.5;exitDx=0;exitDy=0;entryX=0;entryY=0.5;entryDx=0;entryDy=0;" edge="1" parent="1" source="cRylLDb_RZIH1TP81bXJ-37" target="cRylLDb_RZIH1TP81bXJ-39">
          <mxGeometry relative="1" as="geometry" />
        </mxCell>
        <mxCell id="cRylLDb_RZIH1TP81bXJ-37" value="更新支付交易时间" style="html=1;dashed=0;whitespace=wrap;fillColor=#CCFF99;" vertex="1" parent="1">
          <mxGeometry x="720" y="220" width="100" height="50" as="geometry" />
        </mxCell>
        <mxCell id="cRylLDb_RZIH1TP81bXJ-38" style="edgeStyle=orthogonalEdgeStyle;rounded=0;orthogonalLoop=1;jettySize=auto;html=1;exitX=1;exitY=0.5;exitDx=0;exitDy=0;entryX=0.5;entryY=1;entryDx=0;entryDy=0;" edge="1" parent="1" source="cRylLDb_RZIH1TP81bXJ-39" target="cRylLDb_RZIH1TP81bXJ-31">
          <mxGeometry relative="1" as="geometry" />
        </mxCell>
        <mxCell id="cRylLDb_RZIH1TP81bXJ-39" value="通知上游业务端" style="html=1;dashed=0;whitespace=wrap;" vertex="1" parent="1">
          <mxGeometry x="910" y="220" width="100" height="50" as="geometry" />
        </mxCell>
        <mxCell id="cRylLDb_RZIH1TP81bXJ-40" style="edgeStyle=orthogonalEdgeStyle;rounded=0;orthogonalLoop=1;jettySize=auto;html=1;exitX=0.5;exitY=1;exitDx=0;exitDy=0;entryX=0;entryY=0.5;entryDx=0;entryDy=0;" edge="1" parent="1" source="cRylLDb_RZIH1TP81bXJ-42" target="cRylLDb_RZIH1TP81bXJ-47">
          <mxGeometry relative="1" as="geometry">
            <mxPoint x="890" y="675" as="targetPoint" />
          </mxGeometry>
        </mxCell>
        <mxCell id="cRylLDb_RZIH1TP81bXJ-41" value="不是退款单；支付订单" style="text;html=1;align=center;verticalAlign=middle;resizable=0;points=[];labelBackgroundColor=#ffffff;" vertex="1" connectable="0" parent="cRylLDb_RZIH1TP81bXJ-40">
          <mxGeometry x="0.1953" y="-2" relative="1" as="geometry">
            <mxPoint as="offset" />
          </mxGeometry>
        </mxCell>
        <mxCell id="cRylLDb_RZIH1TP81bXJ-42" value="是否退款订单" style="shape=rhombus;html=1;dashed=0;whitespace=wrap;perimeter=rhombusPerimeter;" vertex="1" parent="1">
          <mxGeometry x="680" y="520" width="140" height="50" as="geometry" />
        </mxCell>
        <mxCell id="cRylLDb_RZIH1TP81bXJ-43" style="edgeStyle=orthogonalEdgeStyle;rounded=0;orthogonalLoop=1;jettySize=auto;html=1;exitX=0.5;exitY=1;exitDx=0;exitDy=0;entryX=1;entryY=0.5;entryDx=0;entryDy=0;" edge="1" parent="1" source="cRylLDb_RZIH1TP81bXJ-44" target="cRylLDb_RZIH1TP81bXJ-47">
          <mxGeometry relative="1" as="geometry">
            <mxPoint x="990" y="675" as="targetPoint" />
          </mxGeometry>
        </mxCell>
        <mxCell id="cRylLDb_RZIH1TP81bXJ-44" value="刷新退款单trade_time为&lt;br&gt;账期时间" style="html=1;dashed=0;whitespace=wrap;fillColor=#FF9999;" vertex="1" parent="1">
          <mxGeometry x="1020" y="520" width="180" height="50" as="geometry" />
        </mxCell>
        <mxCell id="cRylLDb_RZIH1TP81bXJ-45" style="edgeStyle=orthogonalEdgeStyle;rounded=0;orthogonalLoop=1;jettySize=auto;html=1;exitX=1;exitY=0.5;exitDx=0;exitDy=0;entryX=0;entryY=0.5;entryDx=0;entryDy=0;" edge="1" parent="1" source="cRylLDb_RZIH1TP81bXJ-42" target="cRylLDb_RZIH1TP81bXJ-44">
          <mxGeometry relative="1" as="geometry">
            <mxPoint x="740" y="640" as="sourcePoint" />
            <mxPoint x="980" y="640" as="targetPoint" />
          </mxGeometry>
        </mxCell>
        <mxCell id="cRylLDb_RZIH1TP81bXJ-46" value="是&lt;br&gt;退款单，账期时间&amp;amp;订单号" style="text;html=1;align=center;verticalAlign=middle;resizable=0;points=[];labelBackgroundColor=#ffffff;" vertex="1" connectable="0" parent="cRylLDb_RZIH1TP81bXJ-45">
          <mxGeometry x="-0.5083" y="27" relative="1" as="geometry">
            <mxPoint x="51" y="12" as="offset" />
          </mxGeometry>
        </mxCell>
        <mxCell id="cRylLDb_RZIH1TP81bXJ-47" value="对账流程" style="shape=ellipse;html=1;dashed=0;whitespace=wrap;perimeter=ellipsePerimeter;" vertex="1" parent="1">
          <mxGeometry x="890" y="660" width="100" height="50" as="geometry" />
        </mxCell>
        <mxCell id="cRylLDb_RZIH1TP81bXJ-48" style="edgeStyle=orthogonalEdgeStyle;rounded=0;orthogonalLoop=1;jettySize=auto;html=1;exitX=0.5;exitY=0;exitDx=0;exitDy=0;entryX=0;entryY=0.5;entryDx=0;entryDy=0;" edge="1" parent="1" source="cRylLDb_RZIH1TP81bXJ-51" target="cRylLDb_RZIH1TP81bXJ-56">
          <mxGeometry relative="1" as="geometry" />
        </mxCell>
        <mxCell id="cRylLDb_RZIH1TP81bXJ-49" value="是" style="text;html=1;align=center;verticalAlign=middle;resizable=0;points=[];labelBackgroundColor=#ffffff;" vertex="1" connectable="0" parent="cRylLDb_RZIH1TP81bXJ-48">
          <mxGeometry x="0.0462" y="-16" relative="1" as="geometry">
            <mxPoint as="offset" />
          </mxGeometry>
        </mxCell>
        <mxCell id="cRylLDb_RZIH1TP81bXJ-50" style="edgeStyle=orthogonalEdgeStyle;rounded=0;orthogonalLoop=1;jettySize=auto;html=1;exitX=0.5;exitY=1;exitDx=0;exitDy=0;entryX=0;entryY=0.5;entryDx=0;entryDy=0;" edge="1" parent="1" source="cRylLDb_RZIH1TP81bXJ-51" target="cRylLDb_RZIH1TP81bXJ-73">
          <mxGeometry relative="1" as="geometry" />
        </mxCell>
        <mxCell id="cRylLDb_RZIH1TP81bXJ-51" value="是否退款单" style="rhombus;whiteSpace=wrap;html=1;" vertex="1" parent="1">
          <mxGeometry x="-200" y="820" width="80" height="80" as="geometry" />
        </mxCell>
        <mxCell id="cRylLDb_RZIH1TP81bXJ-52" style="edgeStyle=orthogonalEdgeStyle;rounded=0;orthogonalLoop=1;jettySize=auto;html=1;exitX=1;exitY=0.5;exitDx=0;exitDy=0;entryX=0;entryY=0.5;entryDx=0;entryDy=0;" edge="1" parent="1" source="cRylLDb_RZIH1TP81bXJ-56" target="cRylLDb_RZIH1TP81bXJ-70">
          <mxGeometry relative="1" as="geometry" />
        </mxCell>
        <mxCell id="cRylLDb_RZIH1TP81bXJ-53" value="存在" style="text;html=1;align=center;verticalAlign=middle;resizable=0;points=[];labelBackgroundColor=#ffffff;" vertex="1" connectable="0" parent="cRylLDb_RZIH1TP81bXJ-52">
          <mxGeometry x="-0.24" y="3" relative="1" as="geometry">
            <mxPoint as="offset" />
          </mxGeometry>
        </mxCell>
        <mxCell id="cRylLDb_RZIH1TP81bXJ-54" style="edgeStyle=orthogonalEdgeStyle;rounded=0;orthogonalLoop=1;jettySize=auto;html=1;exitX=0.5;exitY=1;exitDx=0;exitDy=0;entryX=0;entryY=0.5;entryDx=0;entryDy=0;" edge="1" parent="1" source="cRylLDb_RZIH1TP81bXJ-56" target="cRylLDb_RZIH1TP81bXJ-61">
          <mxGeometry relative="1" as="geometry" />
        </mxCell>
        <mxCell id="cRylLDb_RZIH1TP81bXJ-55" value="不存在" style="text;html=1;align=center;verticalAlign=middle;resizable=0;points=[];labelBackgroundColor=#ffffff;" vertex="1" connectable="0" parent="cRylLDb_RZIH1TP81bXJ-54">
          <mxGeometry x="0.2" relative="1" as="geometry">
            <mxPoint y="1" as="offset" />
          </mxGeometry>
        </mxCell>
        <mxCell id="cRylLDb_RZIH1TP81bXJ-56" value="判断退款单是否存在？" style="rhombus;whiteSpace=wrap;html=1;" vertex="1" parent="1">
          <mxGeometry x="-100" y="710" width="150" height="80" as="geometry" />
        </mxCell>
        <mxCell id="cRylLDb_RZIH1TP81bXJ-57" style="edgeStyle=orthogonalEdgeStyle;rounded=0;orthogonalLoop=1;jettySize=auto;html=1;exitX=0.5;exitY=1;exitDx=0;exitDy=0;entryX=0;entryY=0.5;entryDx=0;entryDy=0;" edge="1" parent="1" source="cRylLDb_RZIH1TP81bXJ-61" target="cRylLDb_RZIH1TP81bXJ-63">
          <mxGeometry relative="1" as="geometry" />
        </mxCell>
        <mxCell id="cRylLDb_RZIH1TP81bXJ-58" value="不存在；表示来自于测试环境" style="text;html=1;align=center;verticalAlign=middle;resizable=0;points=[];labelBackgroundColor=#ffffff;" vertex="1" connectable="0" parent="cRylLDb_RZIH1TP81bXJ-57">
          <mxGeometry x="0.1104" y="-4" relative="1" as="geometry">
            <mxPoint x="1" y="-4" as="offset" />
          </mxGeometry>
        </mxCell>
        <mxCell id="cRylLDb_RZIH1TP81bXJ-59" style="edgeStyle=orthogonalEdgeStyle;rounded=0;orthogonalLoop=1;jettySize=auto;html=1;exitX=1;exitY=0.5;exitDx=0;exitDy=0;entryX=0;entryY=0.5;entryDx=0;entryDy=0;" edge="1" parent="1" source="cRylLDb_RZIH1TP81bXJ-61" target="cRylLDb_RZIH1TP81bXJ-65">
          <mxGeometry relative="1" as="geometry" />
        </mxCell>
        <mxCell id="cRylLDb_RZIH1TP81bXJ-60" value="存在" style="text;html=1;align=center;verticalAlign=middle;resizable=0;points=[];labelBackgroundColor=#ffffff;" vertex="1" connectable="0" parent="cRylLDb_RZIH1TP81bXJ-59">
          <mxGeometry x="-0.2364" y="-1" relative="1" as="geometry">
            <mxPoint y="1" as="offset" />
          </mxGeometry>
        </mxCell>
        <mxCell id="cRylLDb_RZIH1TP81bXJ-61" value="对应的支付订单是否存在？" style="shape=rhombus;html=1;dashed=0;whitespace=wrap;perimeter=rhombusPerimeter;" vertex="1" parent="1">
          <mxGeometry x="90" y="820" width="190" height="65" as="geometry" />
        </mxCell>
        <mxCell id="cRylLDb_RZIH1TP81bXJ-62" style="edgeStyle=orthogonalEdgeStyle;rounded=0;orthogonalLoop=1;jettySize=auto;html=1;exitX=0.75;exitY=1;exitDx=0;exitDy=0;entryX=0;entryY=0.5;entryDx=0;entryDy=0;" edge="1" parent="1" source="cRylLDb_RZIH1TP81bXJ-63" target="cRylLDb_RZIH1TP81bXJ-67">
          <mxGeometry relative="1" as="geometry" />
        </mxCell>
        <mxCell id="cRylLDb_RZIH1TP81bXJ-63" value="记录为异常结果记录表" style="html=1;dashed=0;whitespace=wrap;" vertex="1" parent="1">
          <mxGeometry x="400" y="930" width="146" height="50" as="geometry" />
        </mxCell>
        <mxCell id="cRylLDb_RZIH1TP81bXJ-65" value="生成对应退款单" style="html=1;dashed=0;whitespace=wrap;" vertex="1" parent="1">
          <mxGeometry x="423" y="827.5" width="100" height="50" as="geometry" />
        </mxCell>
        <mxCell id="cRylLDb_RZIH1TP81bXJ-66" style="edgeStyle=orthogonalEdgeStyle;rounded=0;orthogonalLoop=1;jettySize=auto;html=1;exitX=1;exitY=0.5;exitDx=0;exitDy=0;" edge="1" parent="1" source="cRylLDb_RZIH1TP81bXJ-67" target="cRylLDb_RZIH1TP81bXJ-77">
          <mxGeometry relative="1" as="geometry" />
        </mxCell>
        <mxCell id="cRylLDb_RZIH1TP81bXJ-67" value="按trade_time，order_state进行订单统计，生成结果" style="html=1;dashed=0;whitespace=wrap;" vertex="1" parent="1">
          <mxGeometry x="620" y="970" width="290" height="70" as="geometry" />
        </mxCell>
        <mxCell id="cRylLDb_RZIH1TP81bXJ-68" style="edgeStyle=orthogonalEdgeStyle;rounded=0;orthogonalLoop=1;jettySize=auto;html=1;exitX=1;exitY=0.5;exitDx=0;exitDy=0;entryX=1;entryY=0.5;entryDx=0;entryDy=0;" edge="1" parent="1" source="cRylLDb_RZIH1TP81bXJ-70" target="cRylLDb_RZIH1TP81bXJ-63">
          <mxGeometry relative="1" as="geometry">
            <Array as="points">
              <mxPoint x="620" y="750" />
              <mxPoint x="620" y="955" />
            </Array>
          </mxGeometry>
        </mxCell>
        <mxCell id="cRylLDb_RZIH1TP81bXJ-69" value="比对验证不通过" style="text;html=1;align=center;verticalAlign=middle;resizable=0;points=[];labelBackgroundColor=#ffffff;" vertex="1" connectable="0" parent="cRylLDb_RZIH1TP81bXJ-68">
          <mxGeometry x="0.3682" y="-2" relative="1" as="geometry">
            <mxPoint as="offset" />
          </mxGeometry>
        </mxCell>
        <mxCell id="cRylLDb_RZIH1TP81bXJ-70" value="验证金额和状态&amp;amp;渠道？" style="shape=rhombus;html=1;dashed=0;whitespace=wrap;perimeter=rhombusPerimeter;" vertex="1" parent="1">
          <mxGeometry x="290" y="713.75" width="150" height="72.5" as="geometry" />
        </mxCell>
        <mxCell id="cRylLDb_RZIH1TP81bXJ-71" style="edgeStyle=orthogonalEdgeStyle;rounded=0;orthogonalLoop=1;jettySize=auto;html=1;exitX=1;exitY=0.5;exitDx=0;exitDy=0;entryX=0.5;entryY=1;entryDx=0;entryDy=0;" edge="1" parent="1" source="cRylLDb_RZIH1TP81bXJ-73" target="cRylLDb_RZIH1TP81bXJ-63">
          <mxGeometry relative="1" as="geometry" />
        </mxCell>
        <mxCell id="cRylLDb_RZIH1TP81bXJ-72" value="不存在，如果代T,表示该订单来自测试环境;需要添加支付单； &lt;br&gt;" style="text;html=1;align=center;verticalAlign=middle;resizable=0;points=[];labelBackgroundColor=#ffffff;" vertex="1" connectable="0" parent="cRylLDb_RZIH1TP81bXJ-71">
          <mxGeometry x="-0.2527" y="-4" relative="1" as="geometry">
            <mxPoint as="offset" />
          </mxGeometry>
        </mxCell>
        <mxCell id="cRylLDb_RZIH1TP81bXJ-73" value="判断支付单是否存在？" style="rhombus;whiteSpace=wrap;html=1;" vertex="1" parent="1">
          <mxGeometry x="-110" y="970" width="150" height="80" as="geometry" />
        </mxCell>
        <mxCell id="cRylLDb_RZIH1TP81bXJ-74" style="edgeStyle=orthogonalEdgeStyle;rounded=0;orthogonalLoop=1;jettySize=auto;html=1;entryX=0;entryY=0.5;entryDx=0;entryDy=0;" edge="1" parent="1" source="cRylLDb_RZIH1TP81bXJ-75" target="cRylLDb_RZIH1TP81bXJ-51">
          <mxGeometry relative="1" as="geometry" />
        </mxCell>
        <mxCell id="cRylLDb_RZIH1TP81bXJ-75" value="统计渠道订单统计信息" style="html=1;dashed=0;whitespace=wrap;fillColor=none;" vertex="1" parent="1">
          <mxGeometry x="-420" y="830" width="130" height="60" as="geometry" />
        </mxCell>
        <mxCell id="cRylLDb_RZIH1TP81bXJ-76" style="edgeStyle=orthogonalEdgeStyle;rounded=0;orthogonalLoop=1;jettySize=auto;html=1;exitX=1;exitY=0.5;exitDx=0;exitDy=0;entryX=0;entryY=0.5;entryDx=0;entryDy=0;" edge="1" parent="1" source="cRylLDb_RZIH1TP81bXJ-77" target="cRylLDb_RZIH1TP81bXJ-78">
          <mxGeometry relative="1" as="geometry" />
        </mxCell>
        <mxCell id="cRylLDb_RZIH1TP81bXJ-77" value="生成日账单对比结果" style="html=1;dashed=0;whitespace=wrap;fillColor=none;" vertex="1" parent="1">
          <mxGeometry x="1000" y="975" width="140" height="60" as="geometry" />
        </mxCell>
        <mxCell id="cRylLDb_RZIH1TP81bXJ-78" value="" style="shape=ellipse;html=1;dashed=0;whitespace=wrap;aspect=fixed;strokeWidth=5;perimeter=ellipsePerimeter;fillColor=none;" vertex="1" parent="1">
          <mxGeometry x="1250" y="975" width="60" height="60" as="geometry" />
        </mxCell>
        <mxCell id="cRylLDb_RZIH1TP81bXJ-79" style="edgeStyle=orthogonalEdgeStyle;rounded=0;orthogonalLoop=1;jettySize=auto;html=1;exitX=1;exitY=0.5;exitDx=0;exitDy=0;entryX=0;entryY=0.5;entryDx=0;entryDy=0;" edge="1" parent="1" source="cRylLDb_RZIH1TP81bXJ-80" target="cRylLDb_RZIH1TP81bXJ-83">
          <mxGeometry relative="1" as="geometry" />
        </mxCell>
        <mxCell id="cRylLDb_RZIH1TP81bXJ-80" value="转账对账" style="html=1;dashed=0;whitespace=wrap;fillColor=none;" vertex="1" parent="1">
          <mxGeometry x="-405" y="1080" width="100" height="50" as="geometry" />
        </mxCell>
        <mxCell id="cRylLDb_RZIH1TP81bXJ-81" style="edgeStyle=orthogonalEdgeStyle;rounded=0;orthogonalLoop=1;jettySize=auto;html=1;exitX=1;exitY=0.5;exitDx=0;exitDy=0;" edge="1" parent="1" source="cRylLDb_RZIH1TP81bXJ-83" target="cRylLDb_RZIH1TP81bXJ-85">
          <mxGeometry relative="1" as="geometry" />
        </mxCell>
        <mxCell id="cRylLDb_RZIH1TP81bXJ-82" value="不存在" style="text;html=1;align=center;verticalAlign=middle;resizable=0;points=[];labelBackgroundColor=#ffffff;" vertex="1" connectable="0" parent="cRylLDb_RZIH1TP81bXJ-81">
          <mxGeometry x="-0.3128" y="-3" relative="1" as="geometry">
            <mxPoint x="28" y="12" as="offset" />
          </mxGeometry>
        </mxCell>
        <mxCell id="cRylLDb_RZIH1TP81bXJ-83" value="判断提现订单是否存在" style="rhombus;whiteSpace=wrap;html=1;" vertex="1" parent="1">
          <mxGeometry x="-235" y="1065" width="150" height="80" as="geometry" />
        </mxCell>
        <mxCell id="cRylLDb_RZIH1TP81bXJ-84" style="edgeStyle=orthogonalEdgeStyle;rounded=0;orthogonalLoop=1;jettySize=auto;html=1;exitX=1;exitY=0.5;exitDx=0;exitDy=0;" edge="1" parent="1" source="cRylLDb_RZIH1TP81bXJ-85" target="cRylLDb_RZIH1TP81bXJ-87">
          <mxGeometry relative="1" as="geometry" />
        </mxCell>
        <mxCell id="cRylLDb_RZIH1TP81bXJ-85" value="记录为异常结果记录表" style="html=1;dashed=0;whitespace=wrap;fillColor=none;" vertex="1" parent="1">
          <mxGeometry x="160" y="1080" width="192" height="50" as="geometry" />
        </mxCell>
        <mxCell id="cRylLDb_RZIH1TP81bXJ-86" style="edgeStyle=orthogonalEdgeStyle;rounded=0;orthogonalLoop=1;jettySize=auto;html=1;exitX=1;exitY=0.5;exitDx=0;exitDy=0;entryX=0.5;entryY=1;entryDx=0;entryDy=0;" edge="1" parent="1" source="cRylLDb_RZIH1TP81bXJ-87" target="cRylLDb_RZIH1TP81bXJ-78">
          <mxGeometry relative="1" as="geometry" />
        </mxCell>
        <mxCell id="cRylLDb_RZIH1TP81bXJ-87" value="生成转账日账单对比结果" style="html=1;dashed=0;whitespace=wrap;fillColor=none;" vertex="1" parent="1">
          <mxGeometry x="570" y="1080" width="217" height="50" as="geometry" />
        </mxCell>
        <mxCell id="cRylLDb_RZIH1TP81bXJ-88" style="edgeStyle=orthogonalEdgeStyle;rounded=0;orthogonalLoop=1;jettySize=auto;html=1;exitX=0;exitY=0.5;exitDx=0;exitDy=0;" edge="1" parent="1" source="cRylLDb_RZIH1TP81bXJ-89" target="cRylLDb_RZIH1TP81bXJ-77">
          <mxGeometry relative="1" as="geometry" />
        </mxCell>
        <mxCell id="cRylLDb_RZIH1TP81bXJ-89" value="确认日对账结果" style="html=1;dashed=0;whitespace=wrap;fillColor=none;" vertex="1" parent="1">
          <mxGeometry x="1260" y="740" width="100" height="50" as="geometry" />
        </mxCell>
        <mxCell id="cRylLDb_RZIH1TP81bXJ-90" value="需要修复；不能刷新退款订单的trade_time" style="text;html=1;strokeColor=none;fillColor=none;align=center;verticalAlign=middle;whiteSpace=wrap;rounded=0;" vertex="1" parent="1">
          <mxGeometry x="630" y="50" width="210" height="30" as="geometry" />
        </mxCell>
        <mxCell id="cRylLDb_RZIH1TP81bXJ-91" value="渠道订单： 退款订单数，退款金额，支付订单数；支付金额" style="text;html=1;strokeColor=none;fillColor=none;align=center;verticalAlign=middle;whiteSpace=wrap;rounded=0;" vertex="1" parent="1">
          <mxGeometry x="-460" y="790" width="190" height="10" as="geometry" />
        </mxCell>
        <mxCell id="cRylLDb_RZIH1TP81bXJ-92" value="Text" style="text;html=1;strokeColor=none;fillColor=none;align=center;verticalAlign=middle;whiteSpace=wrap;rounded=0;" vertex="1" parent="1">
          <mxGeometry x="440" y="795" width="40" height="20" as="geometry" />
        </mxCell>
        <mxCell id="cRylLDb_RZIH1TP81bXJ-96" value="添加个字段：表示补单" style="text;html=1;strokeColor=none;fillColor=none;align=center;verticalAlign=middle;whiteSpace=wrap;rounded=0;" vertex="1" parent="1">
          <mxGeometry x="330" y="650" width="300" as="geometry" />
        </mxCell>
        <mxCell id="cRylLDb_RZIH1TP81bXJ-98" value="&lt;span style=&quot;white-space: nowrap&quot;&gt;转账对账&lt;/span&gt;" style="text;html=1;strokeColor=none;fillColor=none;align=center;verticalAlign=middle;whiteSpace=wrap;rounded=0;" vertex="1" parent="1">
          <mxGeometry x="-590" y="1025" width="80" height="120" as="geometry" />
        </mxCell>
      </root>
    </mxGraphModel>
  </diagram>
</mxfile>
